# MagicaVoxel @ Ephtracy

# group
o 

# material
mtllib Splitting Path Plains Tile 1.mtl
usemtl palette

# normals
vn -1 0 0
vn 1 0 0
vn 0 0 1
vn 0 0 -1
vn 0 -1 0
vn 0 1 0

# texcoords
vt 0.970703 0.5
vt 0.974609 0.5

# verts
v -4 -2 4
v -4 -2 -4
v -4 -1.4 4
v -4 -1.4 0.8
v -4 -1.4 -0.8
v -4 -1.4 -4
v -4 -0.8 4
v -4 -0.8 0.8
v -4 -0.8 -0.8
v -4 -0.8 -4
v -3.4 -1.2 1
v -3.4 -1.2 0.8
v -3.4 -1 1
v -3.4 -1 0.8
v -3 -1 1
v -3 -1 0.8
v -3 -0.8 1
v -3 -0.8 0.8
v -2.6 -1.2 -0.8
v -2.6 -1.2 -1
v -2.6 -1 -0.8
v -2.6 -1 -1
v -2.4 -1 -0.8
v -2.4 -1 -1
v -2.4 -0.8 -0.8
v -2.4 -0.8 -1
v -0.6 -1 1.2
v -0.6 -1 1
v -0.6 -0.8 1.2
v -0.6 -0.8 1
v -0.4 -1.2 1
v -0.4 -1.2 0.8
v -0.4 -1 1
v -0.4 -1 0.8
v 0 -1 1
v 0 -1 0.8
v 0 -0.8 1
v 0 -0.8 0.8
v 0.8 -1.4 -0.8
v 0.8 -1.4 -4
v 0.8 -1.2 -0.8
v 0.8 -1.2 -1
v 0.8 -1.2 -3.8
v 0.8 -1.2 -4
v 0.8 -1 -1
v 0.8 -1 -1.4
v 0.8 -1 -3.2
v 0.8 -1 -3.8
v 0.8 -0.8 -1.4
v 0.8 -0.8 -3.2
v 1 -1.2 -3.8
v 1 -1.2 -4
v 1 -1 -1
v 1 -1 -1.4
v 1 -1 -3.2
v 1 -1 -3.8
v 1 -1 -4
v 1 -0.8 -1
v 1 -0.8 -1.4
v 1 -0.8 -3.2
v 1 -0.8 -3.8
v 1.2 -1.2 -0.8
v 1.2 -1.2 -1
v 1.2 -1 -0.8
v 1.2 -1 -1
v 1.2 -1 -3.8
v 1.2 -1 -4
v 1.2 -0.8 -3.8
v 1.2 -0.8 -4
v 1.6 -1 -0.8
v 1.6 -1 -1
v 1.6 -0.8 -0.8
v 1.6 -0.8 -1
v 2.8 -1.2 1
v 2.8 -1.2 0.8
v 2.8 -1 1
v 2.8 -1 0.8
v 3 -1 1.2
v 3 -1 1
v 3 -0.8 1.2
v 3 -0.8 1
v 3.2 -1 1
v 3.2 -1 0.8
v 3.2 -0.8 1
v 3.2 -0.8 0.8
v 3.4 -1.2 -0.8
v 3.4 -1.2 -1
v 3.4 -1 -0.8
v 3.4 -1 -1
v 3.6 -1 -0.8
v 3.6 -1 -1
v 3.6 -0.8 -0.8
v 3.6 -0.8 -1
v -3.8 -1 1
v -3.8 -1 0.8
v -3.8 -0.8 1
v -3.8 -0.8 0.8
v -3.6 -1.2 1
v -3.6 -1.2 0.8
v -3.6 -1 1
v -3.6 -1 0.8
v -3.4 -1 -0.8
v -3.4 -1 -1
v -3.4 -0.8 -0.8
v -3.4 -0.8 -1
v -3 -1.2 -0.8
v -3 -1.2 -1
v -3 -1 -0.8
v -3 -1 -1
v -1.2 -1 1
v -1.2 -1 0.8
v -1.2 -1 -0.8
v -1.2 -1 -1
v -1.2 -1 -2.8
v -1.2 -1 -3.4
v -1.2 -0.8 1
v -1.2 -0.8 0.8
v -1.2 -0.8 -0.8
v -1.2 -0.8 -1
v -1.2 -0.8 -2.8
v -1.2 -0.8 -3.4
v -1 -1.2 1
v -1 -1.2 0.8
v -1 -1.2 -0.8
v -1 -1.2 -1
v -1 -1.2 -2.8
v -1 -1.2 -3.2
v -1 -1 1.2
v -1 -1 1
v -1 -1 0.8
v -1 -1 -0.8
v -1 -1 -1
v -1 -1 -1.4
v -1 -1 -2.4
v -1 -1 -2.8
v -1 -1 -3.2
v -1 -0.8 1.2
v -1 -0.8 1
v -1 -0.8 -1
v -1 -0.8 -1.4
v -1 -0.8 -2.4
v -1 -0.8 -2.8
v -0.8 -1.4 -0.8
v -0.8 -1.4 -4
v -0.8 -1.2 -0.8
v -0.8 -1.2 -1
v -0.8 -1.2 -2.8
v -0.8 -1.2 -3.2
v -0.8 -1 -1
v -0.8 -1 -1.4
v -0.8 -1 -2.4
v -0.8 -1 -2.8
v -0.8 -1 -3.2
v -0.8 -1 -3.4
v -0.8 -0.8 -1.4
v -0.8 -0.8 -2.4
v -0.8 -0.8 -3.4
v -0.8 -0.8 -4
v 2.2 -1 1
v 2.2 -1 0.8
v 2.2 -0.8 1
v 2.2 -0.8 0.8
v 2.4 -1.2 1
v 2.4 -1.2 0.8
v 2.4 -1 1.2
v 2.4 -1 1
v 2.4 -1 0.8
v 2.4 -0.8 1.2
v 2.4 -0.8 1
v 2.8 -1 -0.8
v 2.8 -1 -1
v 2.8 -0.8 -0.8
v 2.8 -0.8 -1
v 3.2 -1.2 -0.8
v 3.2 -1.2 -1
v 3.2 -1 -0.8
v 3.2 -1 -1
v 4 -2 4
v 4 -2 -4
v 4 -1.4 4
v 4 -1.4 0.8
v 4 -1.4 -0.8
v 4 -1.4 -4
v 4 -0.8 4
v 4 -0.8 0.8
v 4 -0.8 -0.8
v 4 -0.8 -4
v -4 -2 4
v -4 -1.4 4
v -4 -0.8 4
v 4 -2 4
v 4 -1.4 4
v 4 -0.8 4
v -4 -1.4 -0.8
v -4 -0.8 -0.8
v -3.4 -1 -0.8
v -3.4 -0.8 -0.8
v -3 -1.2 -0.8
v -3 -1 -0.8
v -2.6 -1.2 -0.8
v -2.6 -1 -0.8
v -2.4 -1 -0.8
v -2.4 -0.8 -0.8
v -1.2 -1 -0.8
v -1.2 -0.8 -0.8
v -1 -1.2 -0.8
v -1 -1 -0.8
v -0.8 -1.4 -0.8
v -0.8 -1.2 -0.8
v 0.8 -1.4 -0.8
v 0.8 -1.2 -0.8
v 1.2 -1.2 -0.8
v 1.2 -1 -0.8
v 1.6 -1 -0.8
v 1.6 -0.8 -0.8
v 2.8 -1 -0.8
v 2.8 -0.8 -0.8
v 3.2 -1.2 -0.8
v 3.2 -1 -0.8
v 3.4 -1.2 -0.8
v 3.4 -1 -0.8
v 3.6 -1 -0.8
v 3.6 -0.8 -0.8
v 4 -1.4 -0.8
v 4 -0.8 -0.8
v -3.4 -1 -1
v -3.4 -0.8 -1
v -3 -1.2 -1
v -3 -1 -1
v -2.6 -1.2 -1
v -2.6 -1 -1
v -2.4 -1 -1
v -2.4 -0.8 -1
v -1.2 -1 -1
v -1.2 -0.8 -1
v -1 -1.2 -1
v -1 -1 -1
v -1 -0.8 -1
v -0.8 -1.2 -1
v -0.8 -1 -1
v 0.8 -1.2 -1
v 0.8 -1 -1
v 1 -1 -1
v 1 -0.8 -1
v 1.2 -1.2 -1
v 1.2 -1 -1
v 1.6 -1 -1
v 1.6 -0.8 -1
v 2.8 -1 -1
v 2.8 -0.8 -1
v 3.2 -1.2 -1
v 3.2 -1 -1
v 3.4 -1.2 -1
v 3.4 -1 -1
v 3.6 -1 -1
v 3.6 -0.8 -1
v -1 -1 -1.4
v -1 -0.8 -1.4
v -0.8 -1 -1.4
v -0.8 -0.8 -1.4
v 0.8 -1 -1.4
v 0.8 -0.8 -1.4
v 1 -1 -1.4
v 1 -0.8 -1.4
v -1 -1.2 -3.2
v -1 -1 -3.2
v -0.8 -1.2 -3.2
v -0.8 -1 -3.2
v -1.2 -1 -3.4
v -1.2 -0.8 -3.4
v -0.8 -1 -3.4
v -0.8 -0.8 -3.4
v -1 -1 1.2
v -1 -0.8 1.2
v -0.6 -1 1.2
v -0.6 -0.8 1.2
v 2.4 -1 1.2
v 2.4 -0.8 1.2
v 3 -1 1.2
v 3 -0.8 1.2
v -3.8 -1 1
v -3.8 -0.8 1
v -3.6 -1.2 1
v -3.6 -1 1
v -3.4 -1.2 1
v -3.4 -1 1
v -3 -1 1
v -3 -0.8 1
v -1.2 -1 1
v -1.2 -0.8 1
v -1 -1.2 1
v -1 -1 1
v -1 -0.8 1
v -0.6 -1 1
v -0.6 -0.8 1
v -0.4 -1.2 1
v -0.4 -1 1
v 0 -1 1
v 0 -0.8 1
v 2.2 -1 1
v 2.2 -0.8 1
v 2.4 -1.2 1
v 2.4 -1 1
v 2.4 -0.8 1
v 2.8 -1.2 1
v 2.8 -1 1
v 3 -1 1
v 3 -0.8 1
v 3.2 -1 1
v 3.2 -0.8 1
v -4 -1.4 0.8
v -4 -0.8 0.8
v -3.8 -1 0.8
v -3.8 -0.8 0.8
v -3.6 -1.2 0.8
v -3.6 -1 0.8
v -3.4 -1.2 0.8
v -3.4 -1 0.8
v -3 -1 0.8
v -3 -0.8 0.8
v -1.2 -1 0.8
v -1.2 -0.8 0.8
v -1 -1.2 0.8
v -1 -1 0.8
v -0.4 -1.2 0.8
v -0.4 -1 0.8
v 0 -1 0.8
v 0 -0.8 0.8
v 2.2 -1 0.8
v 2.2 -0.8 0.8
v 2.4 -1.2 0.8
v 2.4 -1 0.8
v 2.8 -1.2 0.8
v 2.8 -1 0.8
v 3.2 -1 0.8
v 3.2 -0.8 0.8
v 4 -1.4 0.8
v 4 -0.8 0.8
v -1 -1 -2.4
v -1 -0.8 -2.4
v -0.8 -1 -2.4
v -0.8 -0.8 -2.4
v -1.2 -1 -2.8
v -1.2 -0.8 -2.8
v -1 -1.2 -2.8
v -1 -1 -2.8
v -1 -0.8 -2.8
v -0.8 -1.2 -2.8
v -0.8 -1 -2.8
v 0.8 -1 -3.2
v 0.8 -0.8 -3.2
v 1 -1 -3.2
v 1 -0.8 -3.2
v 0.8 -1.2 -3.8
v 0.8 -1 -3.8
v 1 -1.2 -3.8
v 1 -1 -3.8
v 1 -0.8 -3.8
v 1.2 -1 -3.8
v 1.2 -0.8 -3.8
v -4 -2 -4
v -4 -1.4 -4
v -4 -0.8 -4
v -0.8 -1.4 -4
v -0.8 -0.8 -4
v 0.8 -1.4 -4
v 0.8 -1.2 -4
v 1 -1.2 -4
v 1 -1 -4
v 1.2 -1 -4
v 1.2 -0.8 -4
v 4 -2 -4
v 4 -1.4 -4
v 4 -0.8 -4
v -4 -2 4
v 4 -2 4
v -4 -2 -4
v 4 -2 -4
v -4 -1.4 0.8
v 4 -1.4 0.8
v -4 -1.4 -0.8
v -0.8 -1.4 -0.8
v 0.8 -1.4 -0.8
v 4 -1.4 -0.8
v -0.8 -1.4 -4
v 0.8 -1.4 -4
v -3.6 -1.2 1
v -3.4 -1.2 1
v -1 -1.2 1
v -0.4 -1.2 1
v 2.4 -1.2 1
v 2.8 -1.2 1
v -3.6 -1.2 0.8
v -3.4 -1.2 0.8
v -1 -1.2 0.8
v -0.4 -1.2 0.8
v 2.4 -1.2 0.8
v 2.8 -1.2 0.8
v -3 -1.2 -0.8
v -2.6 -1.2 -0.8
v -1 -1.2 -0.8
v -0.8 -1.2 -0.8
v 0.8 -1.2 -0.8
v 1.2 -1.2 -0.8
v 3.2 -1.2 -0.8
v 3.4 -1.2 -0.8
v -3 -1.2 -1
v -2.6 -1.2 -1
v -1 -1.2 -1
v -0.8 -1.2 -1
v 0.8 -1.2 -1
v 1.2 -1.2 -1
v 3.2 -1.2 -1
v 3.4 -1.2 -1
v -1 -1.2 -2.8
v -0.8 -1.2 -2.8
v -1 -1.2 -3.2
v -0.8 -1.2 -3.2
v 0.8 -1.2 -3.8
v 1 -1.2 -3.8
v 0.8 -1.2 -4
v 1 -1.2 -4
v -1 -1 1.2
v -0.6 -1 1.2
v 2.4 -1 1.2
v 3 -1 1.2
v -3.8 -1 1
v -3.6 -1 1
v -3.4 -1 1
v -3 -1 1
v -1.2 -1 1
v -1 -1 1
v -0.6 -1 1
v -0.4 -1 1
v 0 -1 1
v 2.2 -1 1
v 2.4 -1 1
v 2.8 -1 1
v 3 -1 1
v 3.2 -1 1
v -3.8 -1 0.8
v -3.6 -1 0.8
v -3.4 -1 0.8
v -3 -1 0.8
v -1.2 -1 0.8
v -1 -1 0.8
v -0.4 -1 0.8
v 0 -1 0.8
v 2.2 -1 0.8
v 2.4 -1 0.8
v 2.8 -1 0.8
v 3.2 -1 0.8
v -3.4 -1 -0.8
v -3 -1 -0.8
v -2.6 -1 -0.8
v -2.4 -1 -0.8
v -1.2 -1 -0.8
v -1 -1 -0.8
v 1.2 -1 -0.8
v 1.6 -1 -0.8
v 2.8 -1 -0.8
v 3.2 -1 -0.8
v 3.4 -1 -0.8
v 3.6 -1 -0.8
v -3.4 -1 -1
v -3 -1 -1
v -2.6 -1 -1
v -2.4 -1 -1
v -1.2 -1 -1
v -1 -1 -1
v -0.8 -1 -1
v 0.8 -1 -1
v 1 -1 -1
v 1.2 -1 -1
v 1.6 -1 -1
v 2.8 -1 -1
v 3.2 -1 -1
v 3.4 -1 -1
v 3.6 -1 -1
v -1 -1 -1.4
v -0.8 -1 -1.4
v 0.8 -1 -1.4
v 1 -1 -1.4
v -1 -1 -2.4
v -0.8 -1 -2.4
v -1.2 -1 -2.8
v -1 -1 -2.8
v -0.8 -1 -2.8
v -1 -1 -3.2
v -0.8 -1 -3.2
v 0.8 -1 -3.2
v 1 -1 -3.2
v -1.2 -1 -3.4
v -0.8 -1 -3.4
v 0.8 -1 -3.8
v 1 -1 -3.8
v 1.2 -1 -3.8
v 1 -1 -4
v 1.2 -1 -4
v -4 -0.8 4
v 4 -0.8 4
v -1 -0.8 1.2
v -0.6 -0.8 1.2
v 2.4 -0.8 1.2
v 3 -0.8 1.2
v -3.8 -0.8 1
v -3 -0.8 1
v -1.2 -0.8 1
v -1 -0.8 1
v -0.6 -0.8 1
v 0 -0.8 1
v 2.2 -0.8 1
v 2.4 -0.8 1
v 3 -0.8 1
v 3.2 -0.8 1
v -4 -0.8 0.8
v -3.8 -0.8 0.8
v -3 -0.8 0.8
v -1.2 -0.8 0.8
v 0 -0.8 0.8
v 2.2 -0.8 0.8
v 3.2 -0.8 0.8
v 4 -0.8 0.8
v -4 -0.8 -0.8
v -3.4 -0.8 -0.8
v -2.4 -0.8 -0.8
v -1.2 -0.8 -0.8
v 1.6 -0.8 -0.8
v 2.8 -0.8 -0.8
v 3.6 -0.8 -0.8
v 4 -0.8 -0.8
v -3.4 -0.8 -1
v -2.4 -0.8 -1
v -1.2 -0.8 -1
v -1 -0.8 -1
v 1 -0.8 -1
v 1.6 -0.8 -1
v 2.8 -0.8 -1
v 3.6 -0.8 -1
v -1 -0.8 -1.4
v -0.8 -0.8 -1.4
v 0.8 -0.8 -1.4
v 1 -0.8 -1.4
v -1 -0.8 -2.4
v -0.8 -0.8 -2.4
v -1.2 -0.8 -2.8
v -1 -0.8 -2.8
v 0.8 -0.8 -3.2
v 1 -0.8 -3.2
v -1.2 -0.8 -3.4
v -0.8 -0.8 -3.4
v 1 -0.8 -3.8
v 1.2 -0.8 -3.8
v -4 -0.8 -4
v -0.8 -0.8 -4
v 1.2 -0.8 -4
v 4 -0.8 -4

# faces
f 3/1/1 2/1/1 1/1/1
f 4/1/1 2/1/1 3/1/1
f 5/1/1 2/1/1 4/1/1
f 6/1/1 2/1/1 5/1/1
f 7/2/1 4/2/1 3/2/1
f 8/2/1 4/2/1 7/2/1
f 9/2/1 6/2/1 5/2/1
f 10/2/1 6/2/1 9/2/1
f 13/2/1 12/2/1 11/2/1
f 14/2/1 12/2/1 13/2/1
f 17/2/1 16/2/1 15/2/1
f 18/2/1 16/2/1 17/2/1
f 21/2/1 20/2/1 19/2/1
f 22/2/1 20/2/1 21/2/1
f 25/2/1 24/2/1 23/2/1
f 26/2/1 24/2/1 25/2/1
f 29/2/1 28/2/1 27/2/1
f 30/2/1 28/2/1 29/2/1
f 33/2/1 32/2/1 31/2/1
f 34/2/1 32/2/1 33/2/1
f 37/2/1 36/2/1 35/2/1
f 38/2/1 36/2/1 37/2/1
f 41/2/1 40/2/1 39/2/1
f 42/2/1 40/2/1 41/2/1
f 43/2/1 40/2/1 42/2/1
f 44/2/1 40/2/1 43/2/1
f 45/2/1 43/2/1 42/2/1
f 46/2/1 43/2/1 45/2/1
f 47/2/1 43/2/1 46/2/1
f 48/2/1 43/2/1 47/2/1
f 49/2/1 47/2/1 46/2/1
f 50/2/1 47/2/1 49/2/1
f 56/2/1 52/2/1 51/2/1
f 57/2/1 52/2/1 56/2/1
f 58/2/1 54/2/1 53/2/1
f 59/2/1 54/2/1 58/2/1
f 60/2/1 56/2/1 55/2/1
f 61/2/1 56/2/1 60/2/1
f 64/2/1 63/2/1 62/2/1
f 65/2/1 63/2/1 64/2/1
f 68/2/1 67/2/1 66/2/1
f 69/2/1 67/2/1 68/2/1
f 72/2/1 71/2/1 70/2/1
f 73/2/1 71/2/1 72/2/1
f 76/2/1 75/2/1 74/2/1
f 77/2/1 75/2/1 76/2/1
f 80/2/1 79/2/1 78/2/1
f 81/2/1 79/2/1 80/2/1
f 84/2/1 83/2/1 82/2/1
f 85/2/1 83/2/1 84/2/1
f 88/2/1 87/2/1 86/2/1
f 89/2/1 87/2/1 88/2/1
f 92/2/1 91/2/1 90/2/1
f 93/2/1 91/2/1 92/2/1
f 94/2/2 95/2/2 96/2/2
f 96/2/2 95/2/2 97/2/2
f 98/2/2 99/2/2 100/2/2
f 100/2/2 99/2/2 101/2/2
f 102/2/2 103/2/2 104/2/2
f 104/2/2 103/2/2 105/2/2
f 106/2/2 107/2/2 108/2/2
f 108/2/2 107/2/2 109/2/2
f 110/2/2 111/2/2 116/2/2
f 116/2/2 111/2/2 117/2/2
f 112/2/2 113/2/2 118/2/2
f 118/2/2 113/2/2 119/2/2
f 114/2/2 115/2/2 120/2/2
f 120/2/2 115/2/2 121/2/2
f 122/2/2 123/2/2 129/2/2
f 129/2/2 123/2/2 130/2/2
f 124/2/2 125/2/2 131/2/2
f 131/2/2 125/2/2 132/2/2
f 126/2/2 127/2/2 135/2/2
f 135/2/2 127/2/2 136/2/2
f 128/2/2 129/2/2 137/2/2
f 137/2/2 129/2/2 138/2/2
f 132/2/2 133/2/2 139/2/2
f 139/2/2 133/2/2 140/2/2
f 134/2/2 135/2/2 141/2/2
f 141/2/2 135/2/2 142/2/2
f 143/2/2 144/2/2 145/2/2
f 145/2/2 144/2/2 146/2/2
f 146/2/2 144/2/2 147/2/2
f 147/2/2 144/2/2 148/2/2
f 146/2/2 147/2/2 149/2/2
f 149/2/2 147/2/2 150/2/2
f 150/2/2 147/2/2 151/2/2
f 151/2/2 147/2/2 152/2/2
f 148/2/2 144/2/2 153/2/2
f 153/2/2 144/2/2 154/2/2
f 150/2/2 151/2/2 155/2/2
f 155/2/2 151/2/2 156/2/2
f 154/2/2 144/2/2 157/2/2
f 157/2/2 144/2/2 158/2/2
f 159/2/2 160/2/2 161/2/2
f 161/2/2 160/2/2 162/2/2
f 163/2/2 164/2/2 166/2/2
f 166/2/2 164/2/2 167/2/2
f 165/2/2 166/2/2 168/2/2
f 168/2/2 166/2/2 169/2/2
f 170/2/2 171/2/2 172/2/2
f 172/2/2 171/2/2 173/2/2
f 174/2/2 175/2/2 176/2/2
f 176/2/2 175/2/2 177/2/2
f 178/1/2 179/1/2 180/1/2
f 180/1/2 179/1/2 181/1/2
f 181/1/2 179/1/2 182/1/2
f 182/1/2 179/1/2 183/1/2
f 180/2/2 181/2/2 184/2/2
f 184/2/2 181/2/2 185/2/2
f 182/2/2 183/2/2 186/2/2
f 186/2/2 183/2/2 187/2/2
f 191/1/3 189/1/3 188/1/3
f 192/2/3 190/2/3 189/2/3
f 192/1/3 189/1/3 191/1/3
f 193/2/3 190/2/3 192/2/3
f 196/2/3 195/2/3 194/2/3
f 197/2/3 195/2/3 196/2/3
f 198/2/3 196/2/3 194/2/3
f 199/2/3 196/2/3 198/2/3
f 200/2/3 198/2/3 194/2/3
f 202/2/3 201/2/3 200/2/3
f 204/2/3 202/2/3 200/2/3
f 204/2/3 203/2/3 202/2/3
f 205/2/3 203/2/3 204/2/3
f 206/2/3 200/2/3 194/2/3
f 206/2/3 204/2/3 200/2/3
f 207/2/3 204/2/3 206/2/3
f 208/2/3 206/2/3 194/2/3
f 209/2/3 206/2/3 208/2/3
f 212/2/3 211/2/3 210/2/3
f 214/2/3 213/2/3 212/2/3
f 216/2/3 214/2/3 212/2/3
f 216/2/3 215/2/3 214/2/3
f 217/2/3 215/2/3 216/2/3
f 218/2/3 212/2/3 210/2/3
f 218/2/3 216/2/3 212/2/3
f 219/2/3 216/2/3 218/2/3
f 220/2/3 218/2/3 210/2/3
f 222/2/3 221/2/3 220/2/3
f 224/2/3 222/2/3 220/2/3
f 224/2/3 223/2/3 222/2/3
f 224/2/3 220/2/3 210/2/3
f 225/2/3 223/2/3 224/2/3
f 229/2/3 227/2/3 226/2/3
f 230/2/3 229/2/3 228/2/3
f 231/2/3 227/2/3 229/2/3
f 231/2/3 229/2/3 230/2/3
f 232/2/3 227/2/3 231/2/3
f 233/2/3 227/2/3 232/2/3
f 237/2/3 235/2/3 234/2/3
f 238/2/3 235/2/3 237/2/3
f 239/2/3 237/2/3 236/2/3
f 240/2/3 237/2/3 239/2/3
f 243/2/3 242/2/3 241/2/3
f 245/2/3 243/2/3 241/2/3
f 245/2/3 244/2/3 243/2/3
f 246/2/3 244/2/3 245/2/3
f 247/2/3 244/2/3 246/2/3
f 248/2/3 244/2/3 247/2/3
f 252/2/3 250/2/3 249/2/3
f 253/2/3 252/2/3 251/2/3
f 254/2/3 250/2/3 252/2/3
f 254/2/3 252/2/3 253/2/3
f 255/2/3 250/2/3 254/2/3
f 256/2/3 250/2/3 255/2/3
f 259/2/3 258/2/3 257/2/3
f 260/2/3 258/2/3 259/2/3
f 263/2/3 262/2/3 261/2/3
f 264/2/3 262/2/3 263/2/3
f 267/2/3 266/2/3 265/2/3
f 268/2/3 266/2/3 267/2/3
f 271/2/3 270/2/3 269/2/3
f 272/2/3 270/2/3 271/2/3
f 273/2/4 274/2/4 275/2/4
f 275/2/4 274/2/4 276/2/4
f 277/2/4 278/2/4 279/2/4
f 279/2/4 278/2/4 280/2/4
f 281/2/4 282/2/4 284/2/4
f 283/2/4 284/2/4 285/2/4
f 284/2/4 282/2/4 286/2/4
f 285/2/4 284/2/4 286/2/4
f 286/2/4 282/2/4 287/2/4
f 287/2/4 282/2/4 288/2/4
f 289/2/4 290/2/4 292/2/4
f 292/2/4 290/2/4 293/2/4
f 291/2/4 292/2/4 294/2/4
f 291/2/4 294/2/4 296/2/4
f 294/2/4 295/2/4 296/2/4
f 296/2/4 295/2/4 297/2/4
f 297/2/4 295/2/4 298/2/4
f 298/2/4 295/2/4 299/2/4
f 300/2/4 301/2/4 303/2/4
f 303/2/4 301/2/4 304/2/4
f 302/2/4 303/2/4 305/2/4
f 305/2/4 303/2/4 306/2/4
f 307/2/4 308/2/4 309/2/4
f 309/2/4 308/2/4 310/2/4
f 311/2/4 312/2/4 313/2/4
f 313/2/4 312/2/4 314/2/4
f 311/2/4 313/2/4 315/2/4
f 315/2/4 313/2/4 316/2/4
f 311/2/4 315/2/4 317/2/4
f 317/2/4 318/2/4 319/2/4
f 317/2/4 319/2/4 321/2/4
f 319/2/4 320/2/4 321/2/4
f 321/2/4 320/2/4 322/2/4
f 311/2/4 317/2/4 323/2/4
f 317/2/4 321/2/4 323/2/4
f 323/2/4 321/2/4 324/2/4
f 311/2/4 323/2/4 325/2/4
f 325/2/4 326/2/4 327/2/4
f 325/2/4 327/2/4 329/2/4
f 327/2/4 328/2/4 329/2/4
f 329/2/4 328/2/4 330/2/4
f 311/2/4 325/2/4 331/2/4
f 325/2/4 329/2/4 331/2/4
f 331/2/4 329/2/4 332/2/4
f 311/2/4 331/2/4 333/2/4
f 333/2/4 334/2/4 335/2/4
f 333/2/4 335/2/4 337/2/4
f 335/2/4 336/2/4 337/2/4
f 311/2/4 333/2/4 337/2/4
f 337/2/4 336/2/4 338/2/4
f 339/2/4 340/2/4 341/2/4
f 341/2/4 340/2/4 342/2/4
f 343/2/4 344/2/4 346/2/4
f 346/2/4 344/2/4 347/2/4
f 345/2/4 346/2/4 348/2/4
f 348/2/4 346/2/4 349/2/4
f 350/2/4 351/2/4 352/2/4
f 352/2/4 351/2/4 353/2/4
f 354/2/4 355/2/4 356/2/4
f 356/2/4 355/2/4 357/2/4
f 357/2/4 358/2/4 359/2/4
f 359/2/4 358/2/4 360/2/4
f 361/1/4 362/1/4 364/1/4
f 362/2/4 363/2/4 364/2/4
f 364/2/4 363/2/4 365/2/4
f 361/1/4 364/1/4 366/1/4
f 366/2/4 367/2/4 368/2/4
f 368/2/4 369/2/4 370/2/4
f 361/1/4 366/1/4 372/1/4
f 370/2/4 371/2/4 373/2/4
f 372/1/4 366/1/4 373/1/4
f 366/2/4 368/2/4 373/2/4
f 368/2/4 370/2/4 373/2/4
f 373/2/4 371/2/4 374/2/4
f 377/1/5 376/1/5 375/1/5
f 378/1/5 376/1/5 377/1/5
f 379/1/6 380/1/6 381/1/6
f 381/1/6 380/1/6 382/1/6
f 382/1/6 380/1/6 383/1/6
f 383/1/6 380/1/6 384/1/6
f 382/1/6 383/1/6 385/1/6
f 385/1/6 383/1/6 386/1/6
f 387/2/6 388/2/6 393/2/6
f 393/2/6 388/2/6 394/2/6
f 389/2/6 390/2/6 395/2/6
f 395/2/6 390/2/6 396/2/6
f 391/2/6 392/2/6 397/2/6
f 397/2/6 392/2/6 398/2/6
f 399/2/6 400/2/6 407/2/6
f 407/2/6 400/2/6 408/2/6
f 401/2/6 402/2/6 409/2/6
f 409/2/6 402/2/6 410/2/6
f 403/2/6 404/2/6 411/2/6
f 411/2/6 404/2/6 412/2/6
f 405/2/6 406/2/6 413/2/6
f 413/2/6 406/2/6 414/2/6
f 415/2/6 416/2/6 417/2/6
f 417/2/6 416/2/6 418/2/6
f 419/2/6 420/2/6 421/2/6
f 421/2/6 420/2/6 422/2/6
f 423/2/6 424/2/6 432/2/6
f 432/2/6 424/2/6 433/2/6
f 425/2/6 426/2/6 437/2/6
f 437/2/6 426/2/6 438/2/6
f 438/2/6 426/2/6 439/2/6
f 427/2/6 428/2/6 441/2/6
f 441/2/6 428/2/6 442/2/6
f 429/2/6 430/2/6 443/2/6
f 443/2/6 430/2/6 444/2/6
f 431/2/6 432/2/6 445/2/6
f 445/2/6 432/2/6 446/2/6
f 434/2/6 435/2/6 447/2/6
f 447/2/6 435/2/6 448/2/6
f 436/2/6 437/2/6 449/2/6
f 449/2/6 437/2/6 450/2/6
f 439/2/6 440/2/6 451/2/6
f 438/2/6 439/2/6 451/2/6
f 451/2/6 440/2/6 452/2/6
f 453/2/6 454/2/6 465/2/6
f 465/2/6 454/2/6 466/2/6
f 455/2/6 456/2/6 467/2/6
f 467/2/6 456/2/6 468/2/6
f 457/2/6 458/2/6 469/2/6
f 469/2/6 458/2/6 470/2/6
f 459/2/6 460/2/6 474/2/6
f 474/2/6 460/2/6 475/2/6
f 461/2/6 462/2/6 476/2/6
f 476/2/6 462/2/6 477/2/6
f 463/2/6 464/2/6 478/2/6
f 478/2/6 464/2/6 479/2/6
f 470/2/6 471/2/6 480/2/6
f 480/2/6 471/2/6 481/2/6
f 472/2/6 473/2/6 482/2/6
f 482/2/6 473/2/6 483/2/6
f 484/2/6 485/2/6 487/2/6
f 487/2/6 485/2/6 488/2/6
f 486/2/6 487/2/6 489/2/6
f 489/2/6 490/2/6 493/2/6
f 486/2/6 489/2/6 493/2/6
f 493/2/6 490/2/6 494/2/6
f 491/2/6 492/2/6 495/2/6
f 495/2/6 492/2/6 496/2/6
f 496/2/6 497/2/6 498/2/6
f 498/2/6 497/2/6 499/2/6
f 500/2/6 501/2/6 502/2/6
f 502/2/6 501/2/6 503/2/6
f 503/2/6 501/2/6 504/2/6
f 504/2/6 501/2/6 505/2/6
f 500/2/6 502/2/6 506/2/6
f 506/2/6 502/2/6 507/2/6
f 507/2/6 502/2/6 508/2/6
f 508/2/6 502/2/6 509/2/6
f 503/2/6 504/2/6 510/2/6
f 510/2/6 504/2/6 511/2/6
f 511/2/6 504/2/6 512/2/6
f 512/2/6 504/2/6 513/2/6
f 505/2/6 501/2/6 514/2/6
f 514/2/6 501/2/6 515/2/6
f 500/2/6 506/2/6 516/2/6
f 516/2/6 506/2/6 517/2/6
f 507/2/6 508/2/6 518/2/6
f 518/2/6 508/2/6 519/2/6
f 511/2/6 512/2/6 520/2/6
f 520/2/6 512/2/6 521/2/6
f 515/2/6 501/2/6 522/2/6
f 522/2/6 501/2/6 523/2/6
f 524/2/6 525/2/6 532/2/6
f 526/2/6 527/2/6 533/2/6
f 533/2/6 527/2/6 534/2/6
f 528/2/6 529/2/6 537/2/6
f 537/2/6 529/2/6 538/2/6
f 530/2/6 531/2/6 539/2/6
f 534/2/6 535/2/6 540/2/6
f 532/2/6 533/2/6 540/2/6
f 533/2/6 534/2/6 540/2/6
f 537/2/6 538/2/6 543/2/6
f 538/2/6 539/2/6 543/2/6
f 536/2/6 537/2/6 543/2/6
f 540/2/6 541/2/6 544/2/6
f 532/2/6 540/2/6 544/2/6
f 544/2/6 541/2/6 545/2/6
f 532/2/6 544/2/6 546/2/6
f 546/2/6 544/2/6 547/2/6
f 542/2/6 543/2/6 548/2/6
f 543/2/6 539/2/6 549/2/6
f 548/2/6 543/2/6 549/2/6
f 532/2/6 546/2/6 550/2/6
f 549/2/6 539/2/6 552/2/6
f 552/2/6 539/2/6 553/2/6
f 550/2/6 551/2/6 554/2/6
f 524/2/6 532/2/6 554/2/6
f 532/2/6 550/2/6 554/2/6
f 554/2/6 551/2/6 555/2/6
f 553/2/6 539/2/6 556/2/6
f 539/2/6 531/2/6 557/2/6
f 556/2/6 539/2/6 557/2/6
