# MagicaVoxel @ Ephtracy

# group
o 

# material
mtllib Desert Mage Tower Crystal.mtl
usemtl palette

# normals
vn -1 0 0
vn 1 0 0
vn 0 0 1
vn 0 0 -1
vn 0 -1 0
vn 0 1 0

# texcoords
vt 0.814453 0.5
vt 0.818359 0.5
vt 0.822266 0.5
vt 0.826172 0.5

# verts
v -0.2 -0.0999999 0.0999999
v -0.2 -0.0999999 -5.96046e-08
v -0.2 5.96046e-08 0.2
v -0.2 5.96046e-08 0.0999999
v -0.2 5.96046e-08 -5.96046e-08
v -0.2 5.96046e-08 -0.1
v -0.2 0.1 0.2
v -0.2 0.1 0.0999999
v -0.2 0.1 -5.96046e-08
v -0.2 0.1 -0.1
v -0.2 0.2 0.2
v -0.2 0.2 0.0999999
v -0.2 0.2 -5.96046e-08
v -0.2 0.2 -0.1
v -0.2 0.3 0.0999999
v -0.2 0.3 -5.96046e-08
v -0.2 0.4 0.0999999
v -0.2 0.4 -5.96046e-08
v -0.0999999 -0.2 0.0999999
v -0.0999999 -0.2 -5.96046e-08
v -0.0999999 -0.0999999 0.2
v -0.0999999 -0.0999999 0.0999999
v -0.0999999 -0.0999999 -5.96046e-08
v -0.0999999 -0.0999999 -0.1
v -0.0999999 5.96046e-08 0.2
v -0.0999999 5.96046e-08 0.0999999
v -0.0999999 5.96046e-08 -5.96046e-08
v -0.0999999 5.96046e-08 -0.1
v -0.0999999 0.2 0.2
v -0.0999999 0.2 0.0999999
v -0.0999999 0.2 -5.96046e-08
v -0.0999999 0.2 -0.1
v -0.0999999 0.3 0.0999999
v -0.0999999 0.3 -5.96046e-08
v -0.0999999 0.3 -0.1
v -0.0999999 0.4 0.2
v -0.0999999 0.4 0.0999999
v -0.0999999 0.4 -5.96046e-08
v -0.0999999 0.4 -0.1
v -0.0999999 0.5 0.0999999
v -0.0999999 0.5 -5.96046e-08
v 5.96046e-08 -0.2 0.0999999
v 5.96046e-08 -0.2 -5.96046e-08
v 5.96046e-08 -0.0999999 0.2
v 5.96046e-08 -0.0999999 0.0999999
v 5.96046e-08 -0.0999999 -5.96046e-08
v 5.96046e-08 -0.0999999 -0.1
v 5.96046e-08 5.96046e-08 0.2
v 5.96046e-08 5.96046e-08 0.0999999
v 5.96046e-08 5.96046e-08 -5.96046e-08
v 5.96046e-08 5.96046e-08 -0.1
v 5.96046e-08 0.2 0.2
v 5.96046e-08 0.2 0.0999999
v 5.96046e-08 0.2 -5.96046e-08
v 5.96046e-08 0.2 -0.1
v 5.96046e-08 0.3 0.0999999
v 5.96046e-08 0.3 -5.96046e-08
v 5.96046e-08 0.3 -0.1
v 5.96046e-08 0.4 0.2
v 5.96046e-08 0.4 0.0999999
v 5.96046e-08 0.4 -5.96046e-08
v 5.96046e-08 0.4 -0.1
v 5.96046e-08 0.5 0.0999999
v 5.96046e-08 0.5 -5.96046e-08
v 0.1 -0.0999999 0.0999999
v 0.1 -0.0999999 -5.96046e-08
v 0.1 5.96046e-08 0.2
v 0.1 5.96046e-08 0.0999999
v 0.1 5.96046e-08 -5.96046e-08
v 0.1 5.96046e-08 -0.1
v 0.1 0.1 0.2
v 0.1 0.1 0.0999999
v 0.1 0.1 -5.96046e-08
v 0.1 0.1 -0.1
v 0.1 0.2 0.2
v 0.1 0.2 0.0999999
v 0.1 0.2 -5.96046e-08
v 0.1 0.2 -0.1
v 0.1 0.3 0.0999999
v 0.1 0.3 -5.96046e-08
v 0.1 0.4 0.0999999
v 0.1 0.4 -5.96046e-08
v -0.2 5.96046e-08 0.2
v -0.2 0.1 0.2
v -0.2 0.2 0.2
v -0.0999999 -0.0999999 0.2
v -0.0999999 5.96046e-08 0.2
v -0.0999999 0.1 0.2
v -0.0999999 0.2 0.2
v -0.0999999 0.4 0.2
v 5.96046e-08 -0.0999999 0.2
v 5.96046e-08 5.96046e-08 0.2
v 5.96046e-08 0.1 0.2
v 5.96046e-08 0.2 0.2
v 5.96046e-08 0.4 0.2
v 0.1 5.96046e-08 0.2
v 0.1 0.1 0.2
v 0.1 0.2 0.2
v -0.2 -0.0999999 0.0999999
v -0.2 5.96046e-08 0.0999999
v -0.2 0.2 0.0999999
v -0.2 0.3 0.0999999
v -0.2 0.4 0.0999999
v -0.0999999 -0.2 0.0999999
v -0.0999999 -0.0999999 0.0999999
v -0.0999999 5.96046e-08 0.0999999
v -0.0999999 0.2 0.0999999
v -0.0999999 0.3 0.0999999
v -0.0999999 0.4 0.0999999
v -0.0999999 0.5 0.0999999
v 5.96046e-08 -0.2 0.0999999
v 5.96046e-08 -0.0999999 0.0999999
v 5.96046e-08 5.96046e-08 0.0999999
v 5.96046e-08 0.2 0.0999999
v 5.96046e-08 0.3 0.0999999
v 5.96046e-08 0.4 0.0999999
v 5.96046e-08 0.5 0.0999999
v 0.1 -0.0999999 0.0999999
v 0.1 5.96046e-08 0.0999999
v 0.1 0.2 0.0999999
v 0.1 0.3 0.0999999
v 0.1 0.4 0.0999999
v -0.2 -0.0999999 -5.96046e-08
v -0.2 5.96046e-08 -5.96046e-08
v -0.2 0.2 -5.96046e-08
v -0.2 0.3 -5.96046e-08
v -0.2 0.4 -5.96046e-08
v -0.0999999 -0.2 -5.96046e-08
v -0.0999999 -0.0999999 -5.96046e-08
v -0.0999999 5.96046e-08 -5.96046e-08
v -0.0999999 0.2 -5.96046e-08
v -0.0999999 0.3 -5.96046e-08
v -0.0999999 0.4 -5.96046e-08
v -0.0999999 0.5 -5.96046e-08
v 5.96046e-08 -0.2 -5.96046e-08
v 5.96046e-08 -0.0999999 -5.96046e-08
v 5.96046e-08 5.96046e-08 -5.96046e-08
v 5.96046e-08 0.2 -5.96046e-08
v 5.96046e-08 0.3 -5.96046e-08
v 5.96046e-08 0.4 -5.96046e-08
v 5.96046e-08 0.5 -5.96046e-08
v 0.1 -0.0999999 -5.96046e-08
v 0.1 5.96046e-08 -5.96046e-08
v 0.1 0.2 -5.96046e-08
v 0.1 0.3 -5.96046e-08
v 0.1 0.4 -5.96046e-08
v -0.2 5.96046e-08 -0.1
v -0.2 0.1 -0.1
v -0.2 0.2 -0.1
v -0.0999999 -0.0999999 -0.1
v -0.0999999 5.96046e-08 -0.1
v -0.0999999 0.1 -0.1
v -0.0999999 0.2 -0.1
v -0.0999999 0.3 -0.1
v -0.0999999 0.4 -0.1
v 5.96046e-08 -0.0999999 -0.1
v 5.96046e-08 5.96046e-08 -0.1
v 5.96046e-08 0.1 -0.1
v 5.96046e-08 0.2 -0.1
v 5.96046e-08 0.3 -0.1
v 5.96046e-08 0.4 -0.1
v 0.1 5.96046e-08 -0.1
v 0.1 0.1 -0.1
v 0.1 0.2 -0.1
v -0.0999999 -0.2 0.0999999
v 5.96046e-08 -0.2 0.0999999
v -0.0999999 -0.2 -5.96046e-08
v 5.96046e-08 -0.2 -5.96046e-08
v -0.0999999 -0.0999999 0.2
v 5.96046e-08 -0.0999999 0.2
v -0.2 -0.0999999 0.0999999
v -0.0999999 -0.0999999 0.0999999
v 5.96046e-08 -0.0999999 0.0999999
v 0.1 -0.0999999 0.0999999
v -0.2 -0.0999999 -5.96046e-08
v -0.0999999 -0.0999999 -5.96046e-08
v 5.96046e-08 -0.0999999 -5.96046e-08
v 0.1 -0.0999999 -5.96046e-08
v -0.0999999 -0.0999999 -0.1
v 5.96046e-08 -0.0999999 -0.1
v -0.2 5.96046e-08 0.2
v -0.0999999 5.96046e-08 0.2
v 5.96046e-08 5.96046e-08 0.2
v 0.1 5.96046e-08 0.2
v -0.2 5.96046e-08 0.0999999
v -0.0999999 5.96046e-08 0.0999999
v 5.96046e-08 5.96046e-08 0.0999999
v 0.1 5.96046e-08 0.0999999
v -0.2 5.96046e-08 -5.96046e-08
v -0.0999999 5.96046e-08 -5.96046e-08
v 5.96046e-08 5.96046e-08 -5.96046e-08
v 0.1 5.96046e-08 -5.96046e-08
v -0.2 5.96046e-08 -0.1
v -0.0999999 5.96046e-08 -0.1
v 5.96046e-08 5.96046e-08 -0.1
v 0.1 5.96046e-08 -0.1
v -0.2 0.2 0.2
v -0.0999999 0.2 0.2
v 5.96046e-08 0.2 0.2
v 0.1 0.2 0.2
v -0.2 0.2 0.0999999
v -0.0999999 0.2 0.0999999
v 5.96046e-08 0.2 0.0999999
v 0.1 0.2 0.0999999
v -0.2 0.2 -5.96046e-08
v -0.0999999 0.2 -5.96046e-08
v 5.96046e-08 0.2 -5.96046e-08
v 0.1 0.2 -5.96046e-08
v -0.2 0.2 -0.1
v -0.0999999 0.2 -0.1
v 5.96046e-08 0.2 -0.1
v 0.1 0.2 -0.1
v -0.0999999 0.4 0.2
v 5.96046e-08 0.4 0.2
v -0.2 0.4 0.0999999
v -0.0999999 0.4 0.0999999
v 5.96046e-08 0.4 0.0999999
v 0.1 0.4 0.0999999
v -0.2 0.4 -5.96046e-08
v -0.0999999 0.4 -5.96046e-08
v 5.96046e-08 0.4 -5.96046e-08
v 0.1 0.4 -5.96046e-08
v -0.0999999 0.4 -0.1
v 5.96046e-08 0.4 -0.1
v -0.0999999 0.5 0.0999999
v 5.96046e-08 0.5 0.0999999
v -0.0999999 0.5 -5.96046e-08
v 5.96046e-08 0.5 -5.96046e-08

# faces
f 4/1/1 2/1/1 1/1/1
f 5/1/1 2/1/1 4/1/1
f 7/4/1 4/4/1 3/4/1
f 8/2/1 6/2/1 5/2/1
f 8/4/1 4/4/1 7/4/1
f 8/2/1 5/2/1 4/2/1
f 9/2/1 6/2/1 8/2/1
f 10/2/1 6/2/1 9/2/1
f 11/1/1 8/1/1 7/1/1
f 11/1/1 9/1/1 8/1/1
f 12/1/1 9/1/1 11/1/1
f 13/4/1 10/4/1 9/4/1
f 13/1/1 9/1/1 12/1/1
f 14/4/1 10/4/1 13/4/1
f 15/1/1 13/1/1 12/1/1
f 16/1/1 13/1/1 15/1/1
f 17/4/1 16/4/1 15/4/1
f 18/4/1 16/4/1 17/4/1
f 22/1/1 20/1/1 19/1/1
f 23/1/1 20/1/1 22/1/1
f 25/1/1 22/1/1 21/1/1
f 26/1/1 22/1/1 25/1/1
f 27/1/1 24/1/1 23/1/1
f 28/1/1 24/1/1 27/1/1
f 33/1/1 30/1/1 29/1/1
f 34/3/1 32/3/1 31/3/1
f 35/3/1 32/3/1 34/3/1
f 36/1/1 33/1/1 29/1/1
f 37/1/1 33/1/1 36/1/1
f 38/1/1 35/1/1 34/1/1
f 39/1/1 35/1/1 38/1/1
f 40/3/1 38/3/1 37/3/1
f 41/3/1 38/3/1 40/3/1
f 42/1/2 43/1/2 45/1/2
f 45/1/2 43/1/2 46/1/2
f 44/1/2 45/1/2 48/1/2
f 48/1/2 45/1/2 49/1/2
f 46/1/2 47/1/2 50/1/2
f 50/1/2 47/1/2 51/1/2
f 52/1/2 53/1/2 56/1/2
f 54/3/2 55/3/2 57/3/2
f 57/3/2 55/3/2 58/3/2
f 52/1/2 56/1/2 59/1/2
f 59/1/2 56/1/2 60/1/2
f 57/1/2 58/1/2 61/1/2
f 61/1/2 58/1/2 62/1/2
f 60/3/2 61/3/2 63/3/2
f 63/3/2 61/3/2 64/3/2
f 65/4/2 66/4/2 68/4/2
f 68/4/2 66/4/2 69/4/2
f 67/4/2 68/4/2 71/4/2
f 69/2/2 70/2/2 72/2/2
f 71/4/2 68/4/2 72/4/2
f 68/2/2 69/2/2 72/2/2
f 72/2/2 70/2/2 73/2/2
f 73/2/2 70/2/2 74/2/2
f 71/3/2 72/3/2 75/3/2
f 72/1/2 73/1/2 76/1/2
f 75/3/2 72/3/2 76/3/2
f 73/4/2 74/4/2 77/4/2
f 76/1/2 73/1/2 77/1/2
f 77/4/2 74/4/2 78/4/2
f 76/1/2 77/1/2 79/1/2
f 79/1/2 77/1/2 80/1/2
f 79/3/2 80/3/2 81/3/2
f 81/3/2 80/3/2 82/3/2
f 87/4/3 84/4/3 83/4/3
f 88/1/3 85/1/3 84/1/3
f 88/4/3 84/4/3 87/4/3
f 89/1/3 85/1/3 88/1/3
f 91/1/3 87/1/3 86/1/3
f 92/2/3 88/2/3 87/2/3
f 92/1/3 87/1/3 91/1/3
f 93/1/3 90/1/3 89/1/3
f 93/2/3 88/2/3 92/2/3
f 93/1/3 89/1/3 88/1/3
f 94/1/3 90/1/3 93/1/3
f 95/1/3 90/1/3 94/1/3
f 96/4/3 93/4/3 92/4/3
f 97/3/3 94/3/3 93/3/3
f 97/4/3 93/4/3 96/4/3
f 98/3/3 94/3/3 97/3/3
f 105/1/3 100/1/3 99/1/3
f 106/1/3 100/1/3 105/1/3
f 107/1/3 102/1/3 101/1/3
f 108/4/3 103/4/3 102/4/3
f 108/1/3 102/1/3 107/1/3
f 109/4/3 103/4/3 108/4/3
f 111/1/3 105/1/3 104/1/3
f 112/1/3 105/1/3 111/1/3
f 116/3/3 110/3/3 109/3/3
f 117/3/3 110/3/3 116/3/3
f 118/4/3 113/4/3 112/4/3
f 119/4/3 113/4/3 118/4/3
f 120/1/3 115/1/3 114/1/3
f 121/3/3 116/3/3 115/3/3
f 121/1/3 115/1/3 120/1/3
f 122/3/3 116/3/3 121/3/3
f 123/1/4 124/1/4 129/1/4
f 129/1/4 124/1/4 130/1/4
f 125/1/4 126/1/4 131/1/4
f 126/4/4 127/4/4 132/4/4
f 131/1/4 126/1/4 132/1/4
f 132/4/4 127/4/4 133/4/4
f 128/1/4 129/1/4 135/1/4
f 135/1/4 129/1/4 136/1/4
f 133/3/4 134/3/4 140/3/4
f 140/3/4 134/3/4 141/3/4
f 136/4/4 137/4/4 142/4/4
f 142/4/4 137/4/4 143/4/4
f 138/1/4 139/1/4 144/1/4
f 139/3/4 140/3/4 145/3/4
f 144/1/4 139/1/4 145/1/4
f 145/3/4 140/3/4 146/3/4
f 147/2/4 148/2/4 151/2/4
f 148/4/4 149/4/4 152/4/4
f 151/2/4 148/2/4 152/2/4
f 152/4/4 149/4/4 153/4/4
f 150/1/4 151/1/4 156/1/4
f 151/2/4 152/2/4 157/2/4
f 156/1/4 151/1/4 157/1/4
f 152/1/4 153/1/4 158/1/4
f 157/2/4 152/2/4 158/2/4
f 153/3/4 154/3/4 159/3/4
f 158/1/4 153/1/4 159/1/4
f 154/1/4 155/1/4 160/1/4
f 159/3/4 154/3/4 160/3/4
f 160/1/4 155/1/4 161/1/4
f 157/2/4 158/2/4 162/2/4
f 158/4/4 159/4/4 163/4/4
f 162/2/4 158/2/4 163/2/4
f 163/4/4 159/4/4 164/4/4
f 167/1/5 166/1/5 165/1/5
f 168/1/5 166/1/5 167/1/5
f 172/1/5 170/1/5 169/1/5
f 173/1/5 170/1/5 172/1/5
f 175/1/5 172/1/5 171/1/5
f 176/1/5 172/1/5 175/1/5
f 177/4/5 174/4/5 173/4/5
f 178/4/5 174/4/5 177/4/5
f 179/1/5 177/1/5 176/1/5
f 180/1/5 177/1/5 179/1/5
f 185/4/5 182/4/5 181/4/5
f 186/4/5 182/4/5 185/4/5
f 187/4/5 184/4/5 183/4/5
f 188/4/5 184/4/5 187/4/5
f 193/2/5 190/2/5 189/2/5
f 194/2/5 190/2/5 193/2/5
f 195/2/5 192/2/5 191/2/5
f 196/2/5 192/2/5 195/2/5
f 197/1/6 198/1/6 201/1/6
f 201/1/6 198/1/6 202/1/6
f 199/3/6 200/3/6 203/3/6
f 203/3/6 200/3/6 204/3/6
f 205/4/6 206/4/6 209/4/6
f 209/4/6 206/4/6 210/4/6
f 207/4/6 208/4/6 211/4/6
f 211/4/6 208/4/6 212/4/6
f 213/1/6 214/1/6 216/1/6
f 216/1/6 214/1/6 217/1/6
f 215/4/6 216/4/6 219/4/6
f 219/4/6 216/4/6 220/4/6
f 217/3/6 218/3/6 221/3/6
f 221/3/6 218/3/6 222/3/6
f 220/1/6 221/1/6 223/1/6
f 223/1/6 221/1/6 224/1/6
f 225/3/6 226/3/6 227/3/6
f 227/3/6 226/3/6 228/3/6
